<svg id="e6ixl8d1zbbx1" xmlns="http://www.w3.org/2000/svg" xmlns:xlink="http://www.w3.org/1999/xlink" viewBox="0 0 1413 1413" shape-rendering="geometricPrecision" text-rendering="geometricPrecision"><g id="e6ixl8d1zbbx2" transform="matrix(0.99945966725912 0.03286903591953 -0.03286903591953 0.99945966725912 -39.41023933786596 73.57772120447817)"><path id="e6ixl8d1zbbx3" d="M411.658000,454.141000L409.720000,555.827000C409.586000,562.859000,412.693000,569.626000,418.382000,574.382000C429.598000,583.791000,436.588000,597.189000,436.306000,612.006000C436.024000,626.824000,428.527000,639.971000,416.962000,648.920000C411.095000,653.481000,407.732000,660.125000,407.598000,667.157000L406.153000,742.951000C406.021000,749.882000,412.107000,755.626000,419.737000,755.771000L530.325000,757.879000C537.955000,758.024000,544.255000,752.517000,544.387000,745.586000L545.832000,669.792000C545.966000,662.760000,542.859000,655.993000,537.169000,651.237000C525.954000,641.828000,518.963000,628.430000,519.246000,613.587000C520.204000,563.359000,585.550000,557.922000,603.271000,558.260000L663.529000,559.641000C691.289000,560.277000,714.280000,538.232000,714.809000,510.470000L714.809000,510.470000C715.337000,482.783000,693.320000,459.911000,665.634000,459.383000L605.178000,458.231000C556.519000,457.304000,522.733000,430.657000,523.681000,380.907000C524.570000,334.269000,554.929000,297.702000,591.160000,275.723000C595.744000,272.942000,597.524000,267.067000,594.953000,262.362000L592.274000,257.457000C592.273000,257.454000,592.263000,257.453000,592.260000,257.453000L592.260000,257.453000C592.251000,257.452000,592.177000,257.463000,592.168000,257.466000C491.629000,286.646000,412.880000,390.010000,411.658000,454.141000ZM448.820000,680.956000C456.455000,681.102000,462.526000,687.409000,462.380000,695.043000L461.950000,717.624000C461.804000,725.259000,455.497000,731.330000,447.863000,731.184000L447.863000,731.184000C440.228000,731.039000,434.157000,724.732000,434.303000,717.097000L434.733000,694.516000C434.879000,686.882000,441.186000,680.811000,448.820000,680.956000L448.820000,680.956000Z" fill="rgb(227,0,41)" stroke="none" stroke-width="1"/><path id="e6ixl8d1zbbx4" d="M885.850000,443.106000L1179.830000,450.216000C1214.670000,451.058000,1244.670000,475.025000,1253.200000,508.818000C1267.220000,564.409000,1218.200000,615.489000,1162.080000,603.761000L1092.440000,589.209000L1029.030000,575.428000L1004.070000,570.809000L978.161000,566.432000L954.706000,562.726000L927.101000,558.321000C926.707000,558.258000,926.317000,558.197000,925.923000,558.136000C923.367000,557.739000,913.019000,556.155000,905.843000,555.351000C898.063000,554.479000,893.426000,554.063000,885.612000,553.481000C879.341000,553.014000,875.855000,552.483000,869.596000,551.907000C864.783000,551.465000,862.108000,550.860000,857.266000,550.833000C850.610000,550.797000,846.866000,551.533000,840.286000,552.640000C833.149000,553.842000,822.781000,556.207000,819.278000,557.020000C818.469000,557.208000,817.667000,557.404000,816.862000,557.607000L804.911000,560.622000C800.040000,561.850000,795.042000,562.504000,790.020000,562.569000L789.678000,562.574000C775.847000,562.754000,762.337000,558.397000,751.215000,550.171000C721.543000,528.225000,716.976000,485.521000,741.174000,457.654000C744.546000,453.771000,748.101000,449.536000,753.044000,448.116000C757.319000,446.887000,758.546000,449.590000,767.726000,445.543000C768.640000,445.140000,774.980000,444.153000,775.964000,443.984000C780.561000,443.193000,785.165000,442.555000,789.134000,442.292000C795.503000,441.871000,798.943000,441.868000,805.185000,441.864000L805.625000,441.863000C811.488000,441.858000,818.959000,441.792000,825.192000,441.723000C833.384000,441.633000,841.575000,441.706000,849.763000,441.980000L864.330000,442.467000L885.850000,443.106000Z" fill="rgb(227,0,41)" stroke="none" stroke-width="1"/></g><g id="e6ixl8d1zbbx5" transform="matrix(1 0 0 1 -77.93989099999993 -78.24775500000010)" opacity="0"><path id="e6ixl8d1zbbx6" d="M491.750000,863.655000L470.892000,996.054000L458.855000,864.073000L457.382000,847.938000L494.299000,847.471000L491.750000,863.655000Z" fill="rgb(227,0,41)" stroke="none" stroke-width="1"/><path id="e6ixl8d1zbbx7" d="M527.342000,848.542000C524.627000,850.382000,521.368000,851.483000,517.893000,851.524000L432.666000,852.610000C423.584000,852.726000,416.460000,845.586000,416.756000,836.662000C417.054000,827.740000,424.656000,820.411000,433.741000,820.296000L518.969000,819.210000C528.051000,819.094000,535.175000,826.234000,534.878000,835.158000C534.695000,840.668000,531.726000,845.572000,527.342000,848.542000Z" fill="rgb(227,0,41)" stroke="none" stroke-width="1"/><g id="e6ixl8d1zbbx8" transform="matrix(1 0 0 1 0 -33)"><ellipse id="e6ixl8d1zbbx9" rx="49.500000" ry="3" transform="matrix(1 0 0 1 512.50000000000000 1034)" fill="rgb(196,196,196)" stroke="none" stroke-width="1"/></g></g><path id="e6ixl8d1zbbx10" display="none" d="M1107.235420,937.517608L1021.950420,1218.716608C1011.337420,1253.706608,979.075420,1277.636608,942.507420,1277.636608C879.904420,1277.636608,839.827420,1210.986608,869.185420,1155.686608L897.639420,1102.096608L929.125420,1043.986608L940.665420,1020.918608L952.205420,996.863608L962.381420,975.026608L974.390420,949.361608C974.569420,948.978608,974.745420,948.601608,974.922420,948.217608C976.040420,945.798608,980.456420,936.191608,983.212420,929.451608C986.208420,922.121608,987.886420,917.727608,990.585420,910.292608C992.752420,904.325608,994.243420,901.075608,996.521420,895.147608C998.273420,890.589608,999.626420,888.143608,1000.946420,883.454608C1002.760420,877.009608,1002.980420,873.199608,1003.563420,866.548608C1004.072420,860.757608,1004.342420,852.766608,1004.467420,847.977608C1004.539420,845.236608,1004.559420,842.495608,1004.559420,839.753608L1004.559420,822.734608C1004.020420,814.718608,1003.317420,806.587608,1000.276420,799.150608C999.825420,798.047608,999.339420,796.997608,998.824420,796.073608C997.266420,793.277608,994.408420,789.784608,992.934420,788.051608L992.916420,788.030608C992.304420,787.311608,991.693420,786.593608,991.101420,785.858608C987.175420,780.984608,982.488420,776.754608,977.106420,773.561608C976.966420,773.478608,976.829420,773.397608,976.695420,773.318608C975.196420,772.435608,973.409420,771.418608,971.678420,770.448608C967.081420,767.870608,961.998420,766.290608,956.761420,765.700608C936.024420,763.364608,920.350420,745.826608,920.350420,724.958608L920.350420,713.837608C920.350420,684.321608,944.300420,659.241608,973.786420,660.580608C984.308420,661.058608,995.290420,662.063608,1008.393420,664.067608C1015.286420,665.122608,1019.188420,665.627608,1025.943420,667.308608C1035.307420,669.638608,1041.044420,671.332608,1050.534420,674.563608C1060.024420,677.794608,1065.285420,679.220608,1075.199420,684.072608C1085.635420,689.179608,1092.915420,691.903608,1101.525420,700.168608C1107.105420,705.524608,1109.695420,709.125608,1113.655420,715.665608C1117.675420,722.298608,1120.925420,726.015608,1123.905420,733.134608C1129.275420,746.001608,1131.365420,753.585608,1133.895420,767.227608C1136.005420,778.610608,1136.445420,794.676608,1136.525420,801.934608C1136.555420,804.486608,1136.565420,807.028608,1136.535420,809.579608C1136.465420,816.898608,1136.055420,833.123608,1133.895420,843.937608C1132.645420,850.216608,1131.725420,853.552608,1130.065420,859.606608L1129.945420,860.032608C1128.465420,865.453608,1126.645420,872.302608,1125.105420,878.180608C1122.865420,886.717608,1120.445420,895.204608,1117.795420,903.625608L1113.655420,916.807608L1107.235420,937.517608Z" transform="matrix(1 0 0 1 186.56146900000022 115.64537999999993)" fill="rgb(227,0,41)" stroke="none" stroke-width="1"/><path id="e6ixl8d1zbbx11" d="M346.265000,764.865000L342.994000,770.967000C342.826000,771.277000,342.917000,771.662000,343.202000,771.869000C343.489000,772.074000,343.882000,772.035000,344.123000,771.779000L348.870000,766.734000L354.966000,770.002000C355.276000,770.168000,355.663000,770.081000,355.868000,769.795000C356.073000,769.507000,356.037000,769.115000,355.778000,768.874000L350.736000,764.133000L354.008000,758.033000C354.174000,757.723000,354.083000,757.338000,353.799000,757.131000C353.514000,756.926000,353.118000,756.966000,352.877000,757.221000L348.136000,762.264000L342.034000,758.993000C341.722000,758.827000,341.336000,758.918000,341.132000,759.203000C340.927000,759.488000,340.964000,759.883000,341.220000,760.124000L346.265000,764.865000Z" transform="matrix(0.94704594435627 0 0 1 -61 -103)" opacity="0" fill="rgb(234,130,73)" stroke="none" stroke-width="1"/><path id="e6ixl8d1zbbx12" d="M643.265000,730.865000L639.994000,736.967000C639.826000,737.277000,639.917000,737.662000,640.202000,737.869000C640.489000,738.074000,640.882000,738.035000,641.123000,737.779000L645.870000,732.734000L651.966000,736.002000C652.276000,736.168000,652.663000,736.081000,652.868000,735.795000C653.073000,735.507000,653.037000,735.115000,652.778000,734.874000L647.736000,730.133000L651.008000,724.033000C651.174000,723.723000,651.083000,723.338000,650.799000,723.131000C650.514000,722.926000,650.118000,722.966000,649.877000,723.221000L645.136000,728.264000L639.034000,724.993000C638.722000,724.827000,638.336000,724.918000,638.132000,725.203000C637.927000,725.488000,637.964000,725.883000,638.220000,726.124000L643.265000,730.865000Z" transform="matrix(0.91275494648400 0 0 1 16 -89)" opacity="0" fill="rgb(255,90,90)" stroke="none" stroke-width="1"/><path id="e6ixl8d1zbbx13" d="M528.265000,982.865000L524.994000,988.967000C524.826000,989.277000,524.917000,989.662000,525.202000,989.869000C525.489000,990.074000,525.882000,990.035000,526.123000,989.779000L530.870000,984.734000L536.966000,988.002000C537.276000,988.168000,537.663000,988.081000,537.868000,987.795000C538.073000,987.507000,538.037000,987.115000,537.778000,986.874000L532.736000,982.133000L536.008000,976.033000C536.174000,975.723000,536.083000,975.338000,535.799000,975.131000C535.514000,974.926000,535.118000,974.966000,534.877000,975.221000L530.136000,980.264000L524.034000,976.993000C523.722000,976.827000,523.336000,976.918000,523.132000,977.203000C522.927000,977.488000,522.964000,977.883000,523.220000,978.124000L528.265000,982.865000Z" transform="matrix(1.01696637823205 0 0 1 0 -238)" opacity="0" fill="rgb(252,194,0)" stroke="none" stroke-width="1"/><path id="e6ixl8d1zbbx14" d="M295.265000,891.865000L291.994000,897.967000C291.826000,898.277000,291.917000,898.662000,292.202000,898.869000C292.489000,899.074000,292.882000,899.035000,293.123000,898.779000L297.870000,893.734000L303.966000,897.002000C304.276000,897.168000,304.663000,897.081000,304.868000,896.795000C305.073000,896.507000,305.037000,896.115000,304.778000,895.874000L299.736000,891.133000L303.008000,885.033000C303.174000,884.723000,303.083000,884.338000,302.799000,884.131000C302.514000,883.926000,302.118000,883.966000,301.877000,884.221000L297.136000,889.264000L291.034000,885.993000C290.722000,885.827000,290.336000,885.918000,290.132000,886.203000C289.927000,886.488000,289.964000,886.883000,290.220000,887.124000L295.265000,891.865000Z" transform="matrix(0.95080469374116 0 0 1 -13 -85)" opacity="0" fill="rgb(227,0,41)" stroke="none" stroke-width="1"/><path id="e6ixl8d1zbbx15" d="M372.567000,904.058000L306.472000,936.328000C297.349000,940.782000,289.512000,943.503000,288.974000,942.401000C288.436000,941.300000,295.401000,936.793000,304.524000,932.339000L370.620000,900.068000C379.743000,895.614000,387.580000,892.894000,388.118000,893.995000C388.655000,895.097000,381.690000,899.604000,372.567000,904.058000Z" transform="matrix(1 0 0 1 -72.84329600000001 -142.85896700000001)" opacity="0" fill="rgb(250,215,68)" stroke="none" stroke-width="1"/><path id="e6ixl8d1zbbx16" d="M329.947000,794.867000L261.989000,766.730000C252.609000,762.846000,245.342000,758.868000,245.764000,757.848000C246.187000,756.828000,254.139000,759.151000,263.519000,763.034000L331.478000,791.171000C340.858000,795.055000,348.125000,799.033000,347.702000,800.053000C347.279000,801.073000,339.326000,798.750000,329.947000,794.867000Z" transform="matrix(1 0 0 1 -38.18340100000000 -94.21474200000000)" opacity="0" fill="rgb(255,206,0)" stroke="none" stroke-width="1"/><path id="e6ixl8d1zbbx17" d="M668.914000,897.249000L599.672000,872.441000C590.115000,869.016000,582.621000,865.513000,582.941000,864.619000C583.262000,863.725000,591.275000,865.778000,600.832000,869.202000L670.075000,894.011000C679.632000,897.435000,687.126000,900.939000,686.806000,901.833000C686.485000,902.726000,678.471000,900.673000,668.914000,897.249000Z" transform="matrix(1 0 0 1 -76.36680200000001 -105.65989500000001)" opacity="0" fill="rgb(252,194,0)" stroke="none" stroke-width="1"/><path id="e6ixl8d1zbbx18" d="M670.749000,755.996000L606.290000,791.422000C597.393000,796.312000,589.912000,799.800000,589.588000,799.210000C589.263000,798.620000,596.218000,794.174000,605.115000,789.284000L669.574000,753.857000C678.471000,748.967000,685.952000,745.479000,686.277000,746.070000C686.600000,746.660000,679.645000,751.106000,670.749000,755.996000Z" transform="matrix(1 0 0 1 -108.35113100000001 -83.46082500000000)" opacity="0" fill="rgb(255,206,0)" stroke="none" stroke-width="1"/><script><![CDATA[!function(t,n){"object"==typeof exports&&"undefined"!=typeof module?module.exports=n():"function"==typeof define&&define.amd?define(n):(t=t||self).__SVGATOR_PLAYER__=n()}(this,(function(){"use strict";function t(n){return(t="function"==typeof Symbol&&"symbol"==typeof Symbol.iterator?function(t){return typeof t}:function(t){return t&&"function"==typeof Symbol&&t.constructor===Symbol&&t!==Symbol.prototype?"symbol":typeof t})(n)}function n(t,n){if(!(t instanceof n))throw new TypeError("Cannot call a class as a function")}function r(t,n){for(var r=0;r<n.length;r++){var e=n[r];e.enumerable=e.enumerable||!1,e.configurable=!0,"value"in e&&(e.writable=!0),Object.defineProperty(t,e.key,e)}}function e(t,n,e){return n&&r(t.prototype,n),e&&r(t,e),t}var i=Math.abs;function u(t){return t}function o(t,n,r){var e=1-r;return 3*r*e*(t*e+n*r)+r*r*r}function a(){var t=arguments.length>0&&void 0!==arguments[0]?arguments[0]:0,n=arguments.length>1&&void 0!==arguments[1]?arguments[1]:0,r=arguments.length>2&&void 0!==arguments[2]?arguments[2]:1,e=arguments.length>3&&void 0!==arguments[3]?arguments[3]:1;return t<0||t>1||r<0||r>1?null:i(t-n)<=1e-5&&i(r-e)<=1e-5?u:function(u){if(u<=0)return t>0?u*n/t:0===n&&r>0?u*e/r:0;if(u>=1)return r<1?1+(u-1)*(e-1)/(r-1):1===r&&t<1?1+(u-1)*(n-1)/(t-1):1;for(var a,l=0,f=1;l<f;){var s=o(t,r,a=(l+f)/2);if(i(u-s)<1e-5)break;s<u?l=a:f=a}return o(n,e,a)}}function l(){return 1}function f(t){return 1===t?1:0}function s(){var t=arguments.length>0&&void 0!==arguments[0]?arguments[0]:1,n=arguments.length>1&&void 0!==arguments[1]?arguments[1]:0;if(1===t){if(0===n)return f;if(1===n)return l}var r=1/t;return function(t){return t>=1?1:(t+=n*r)-t%r}}function c(t){var n=arguments.length>1&&void 0!==arguments[1]?arguments[1]:2;if(Number.isInteger(t))return t;var r=Math.pow(10,n);return Math.round(t*r)/r}var v=Math.PI/180;function h(t,n,r){return t>=.5?r:n}function y(t,n,r){return 0===t||n===r?n:t*(r-n)+n}function d(t,n,r){var e=y(t,n,r);return e<=0?0:e}function g(t,n,r){return 0===t?n:1===t?r:{x:y(t,n.x,r.x),y:y(t,n.y,r.y)}}function m(t,n,r){return 0===t?n:1===t?r:{x:d(t,n.x,r.x),y:d(t,n.y,r.y)}}function p(t,n,r){var e=function(t,n,r){return Math.round(y(t,n,r))}(t,n,r);return e<=0?0:e>=255?255:e}function b(t,n,r){return 0===t?n:1===t?r:{r:p(t,n.r,r.r),g:p(t,n.g,r.g),b:p(t,n.b,r.b),a:y(t,null==n.a?1:n.a,null==r.a?1:r.a)}}function w(t,n,r){if(0===t)return n;if(1===t)return r;var e=n.length;if(e!==r.length)return h(t,n,r);for(var i=[],u=0;u<e;u++)i.push(b(t,n[u],r[u]));return i}function A(t,n,r){var e=n.length;if(e!==r.length)return h(t,n,r);for(var i=new Array(e),u=0;u<e;u++)i[u]=y(t,n[u],r[u]);return i}function x(t,n){for(var r=[],e=0;e<t;e++)r.push(n);return r}function k(t,n){if(--n<=0)return t;var r=(t=Object.assign([],t)).length;do{for(var e=0;e<r;e++)t.push(t[e])}while(--n>0);return t}var S=/\.0+$/g;function _(t){return Number.isInteger(t)?t+"":t.toFixed(6).replace(S,"")}function M(t){var n=arguments.length>1&&void 0!==arguments[1]?arguments[1]:" ";return t&&t.length?t.map(_).join(n):""}function I(t){return _(t.x)+","+_(t.y)}function E(t){return t?null==t.a||t.a>=1?"rgb("+t.r+","+t.g+","+t.b+")":"rgba("+t.r+","+t.g+","+t.b+","+t.a+")":"transparent"}var F={f:null,i:m,u:function(t,n){return function(r){var e=n(r);t.setAttribute("rx",_(e.x)),t.setAttribute("ry",_(e.y))}}},B={f:null,i:function(t,n,r){return 0===t?n:1===t?r:{width:d(t,n.width,r.width),height:d(t,n.height,r.height)}},u:function(t,n){return function(r){var e=n(r);t.setAttribute("width",_(e.width)),t.setAttribute("height",_(e.height))}}},j=Math.sin,q=Math.cos,P=Math.acos,O=Math.asin,z=Math.tan,L=Math.atan2,C=Math.PI/180,R=180/Math.PI,T=Math.sqrt,V=function(){function t(){var r=arguments.length>0&&void 0!==arguments[0]?arguments[0]:1,e=arguments.length>1&&void 0!==arguments[1]?arguments[1]:0,i=arguments.length>2&&void 0!==arguments[2]?arguments[2]:0,u=arguments.length>3&&void 0!==arguments[3]?arguments[3]:1,o=arguments.length>4&&void 0!==arguments[4]?arguments[4]:0,a=arguments.length>5&&void 0!==arguments[5]?arguments[5]:0;n(this,t),this.m=[r,e,i,u,o,a],this.i=null,this.w=null,this.s=null}return e(t,[{key:"point",value:function(t,n){var r=this.m;return{x:r[0]*t+r[2]*n+r[4],y:r[1]*t+r[3]*n+r[5]}}},{key:"translateSelf",value:function(){var t=arguments.length>0&&void 0!==arguments[0]?arguments[0]:0,n=arguments.length>1&&void 0!==arguments[1]?arguments[1]:0;if(!t&&!n)return this;var r=this.m;return r[4]+=r[0]*t+r[2]*n,r[5]+=r[1]*t+r[3]*n,this.w=this.s=this.i=null,this}},{key:"rotateSelf",value:function(){var t=arguments.length>0&&void 0!==arguments[0]?arguments[0]:0;if(t%=360){var n=j(t*=C),r=q(t),e=this.m,i=e[0],u=e[1];e[0]=i*r+e[2]*n,e[1]=u*r+e[3]*n,e[2]=e[2]*r-i*n,e[3]=e[3]*r-u*n,this.w=this.s=this.i=null}return this}},{key:"scaleSelf",value:function(){var t=arguments.length>0&&void 0!==arguments[0]?arguments[0]:1,n=arguments.length>1&&void 0!==arguments[1]?arguments[1]:1;if(1!==t||1!==n){var r=this.m;r[0]*=t,r[1]*=t,r[2]*=n,r[3]*=n,this.w=this.s=this.i=null}return this}},{key:"skewSelf",value:function(t,n){if(n%=360,(t%=360)||n){var r=this.m,e=r[0],i=r[1],u=r[2],o=r[3];t&&(t=z(t*C),r[2]+=e*t,r[3]+=i*t),n&&(n=z(n*C),r[0]+=u*n,r[1]+=o*n),this.w=this.s=this.i=null}return this}},{key:"resetSelf",value:function(){var t=arguments.length>0&&void 0!==arguments[0]?arguments[0]:1,n=arguments.length>1&&void 0!==arguments[1]?arguments[1]:0,r=arguments.length>2&&void 0!==arguments[2]?arguments[2]:0,e=arguments.length>3&&void 0!==arguments[3]?arguments[3]:1,i=arguments.length>4&&void 0!==arguments[4]?arguments[4]:0,u=arguments.length>5&&void 0!==arguments[5]?arguments[5]:0,o=this.m;return o[0]=t,o[1]=n,o[2]=r,o[3]=e,o[4]=i,o[5]=u,this.w=this.s=this.i=null,this}},{key:"recomposeSelf",value:function(){var t=arguments.length>0&&void 0!==arguments[0]?arguments[0]:null,n=arguments.length>1&&void 0!==arguments[1]?arguments[1]:null,r=arguments.length>2&&void 0!==arguments[2]?arguments[2]:null,e=arguments.length>3&&void 0!==arguments[3]?arguments[3]:null,i=arguments.length>4&&void 0!==arguments[4]?arguments[4]:null;return this.isIdentity||this.resetSelf(),t&&(t.x||t.y)&&this.translateSelf(t.x,t.y),n&&this.rotateSelf(n),r&&(r.x&&this.skewSelf(r.x,0),r.y&&this.skewSelf(0,r.y)),!e||1===e.x&&1===e.y||this.scaleSelf(e.x,e.y),i&&(i.x||i.y)&&this.translateSelf(i.x,i.y),this}},{key:"decompose",value:function(){var t=arguments.length>0&&void 0!==arguments[0]?arguments[0]:0,n=arguments.length>1&&void 0!==arguments[1]?arguments[1]:0,r=this.m,e=r[0]*r[0]+r[1]*r[1],i=[[r[0],r[1]],[r[2],r[3]]],u=T(e);if(0===u)return{origin:{x:r[4],y:r[5]},translate:{x:t,y:n},scale:{x:0,y:0},skew:{x:0,y:0},rotate:0};i[0][0]/=u,i[0][1]/=u;var o=r[0]*r[3]-r[1]*r[2]<0;o&&(u=-u);var a=i[0][0]*i[1][0]+i[0][1]*i[1][1];i[1][0]-=i[0][0]*a,i[1][1]-=i[0][1]*a;var l=T(i[1][0]*i[1][0]+i[1][1]*i[1][1]);if(0===l)return{origin:{x:r[4],y:r[5]},translate:{x:t,y:n},scale:{x:u,y:0},skew:{x:0,y:0},rotate:0};i[1][0]/=l,i[1][1]/=l,a/=l;var f=0;return i[1][1]<0?(f=P(i[1][1])*R,i[0][1]<0&&(f=360-f)):f=O(i[0][1])*R,o&&(f=-f),a=L(a,T(i[0][0]*i[0][0]+i[0][1]*i[0][1]))*R,{origin:{x:r[4],y:r[5]},translate:{x:t,y:n},scale:{x:u,y:l},skew:{x:a,y:0},rotate:f}}},{key:"toString",value:function(){return null===this.s&&(this.s="matrix("+this.m.map(N).join(" ")+")"),this.s}},{key:"determinant",get:function(){var t=this.m;return t[0]*t[3]-t[1]*t[2]}},{key:"isIdentity",get:function(){if(null===this.i){var t=this.m;this.i=1===t[0]&&0===t[1]&&0===t[2]&&1===t[3]&&0===t[4]&&0===t[5]}return this.i}}]),t}(),D=/\.0+$/;function N(t){return Number.isInteger(t)?t:t.toFixed(14).replace(D,"")}Object.freeze({M:2,L:2,Z:0,H:1,V:1,C:6,Q:4,T:2,S:4,A:7});function G(t,n,r){return t+(n-t)*r}function $(t,n,r){var e=arguments.length>3&&void 0!==arguments[3]&&arguments[3],i={x:G(t.x,n.x,r),y:G(t.y,n.y,r)};return e&&(i.a=H(t,n)),i}function H(t,n){return Math.atan2(n.y-t.y,n.x-t.x)}function Q(t,n,r,e){var i=1-e;return i*i*t+2*i*e*n+e*e*r}function U(t,n,r,e){return 2*(1-e)*(n-t)+2*e*(r-n)}function Y(t,n,r,e){var i=arguments.length>4&&void 0!==arguments[4]&&arguments[4],u={x:Q(t.x,n.x,r.x,e),y:Q(t.y,n.y,r.y,e)};return i&&(u.a=Z(t,n,r,e)),u}function Z(t,n,r,e){return Math.atan2(U(t.y,n.y,r.y,e),U(t.x,n.x,r.x,e))}function J(t,n,r,e,i){var u=i*i;return i*u*(e-t+3*(n-r))+3*u*(t+r-2*n)+3*i*(n-t)+t}function K(t,n,r,e,i){var u=1-i;return 3*(u*u*(n-t)+2*u*i*(r-n)+i*i*(e-r))}function W(t,n,r,e,i){var u=arguments.length>5&&void 0!==arguments[5]&&arguments[5],o={x:J(t.x,n.x,r.x,e.x,i),y:J(t.y,n.y,r.y,e.y,i)};return u&&(o.a=X(t,n,r,e,i)),o}function X(t,n,r,e,i){return Math.atan2(K(t.y,n.y,r.y,e.y,i),K(t.x,n.x,r.x,e.x,i))}function tt(t,n,r){var e=arguments.length>3&&void 0!==arguments[3]&&arguments[3];if(rt(n)){if(et(r))return Y(n,r.start,r,t,e)}else if(rt(r)){if(n.end)return Y(n,n.end,r,t,e)}else{if(n.end)return r.start?W(n,n.end,r.start,r,t,e):Y(n,n.end,r,t,e);if(r.start)return Y(n,r.start,r,t,e)}return $(n,r,t,e)}function nt(t,n,r){var e=tt(t,n,r,!0);return e.a=function(t){var n=arguments.length>1&&void 0!==arguments[1]&&arguments[1];return n?t+Math.PI:t}(e.a)/v,e}function rt(t){return!t.type||"corner"===t.type}function et(t){return null!=t.start&&!rt(t)}var it=new V;var ut={f:function(t){return t?t.join(" "):""},i:function(n,r,e){if(0===n)return r;if(1===n)return e;var i=r.length;if(i!==e.length)return h(n,r,e);for(var u,o=new Array(i),a=0;a<i;a++){if((u=t(r[a]))!==t(e[a]))return h(n,r,e);if("number"===u)o[a]=y(n,r[a],e[a]);else{if(r[a]!==e[a])return h(n,r,e);o[a]=r[a]}}return o}},ot={f:null,i:A,u:function(t,n){return function(r){var e=n(r);t.setAttribute("x1",_(e[0])),t.setAttribute("y1",_(e[1])),t.setAttribute("x2",_(e[2])),t.setAttribute("y2",_(e[3]))}}},at={f:_,i:y},lt={f:_,i:function(t,n,r){var e=y(t,n,r);return e<=0?0:e>=1?1:e}},ft={f:M,i:function(t,n,r){var e,i,u,o=n.length,a=r.length;if(o!==a)if(0===o)n=x(o=a,0);else if(0===a)a=o,r=x(o,0);else{var l=(u=(e=o)*(i=a)/function(t,n){for(var r;n;)r=n,n=t%n,t=r;return t||1}(e,i))<0?-u:u;n=k(n,Math.floor(l/o)),r=k(r,Math.floor(l/a)),o=a=l}for(var f=[],s=0;s<o;s++)f.push(c(d(t,n[s],r[s]),6));return f}};function st(t,n,r,e,i,u,o,a){return n=function(t,n,r){for(var e,i,u,o=t.length-1,a={},l=0;l<=o;l++)(e=t[l]).e&&(e.e=n(e.e)),e.v&&"g"===(i=e.v).t&&i.r&&(u=r.getElementById(i.r))&&(a[i.r]=u.querySelectorAll("stop"));return a}(t,e,a),function(e){var i,u=r(e,t,ct);return u?"c"===u.t?E(u.v):"g"===u.t?(n[u.r]&&function(t,n){for(var r=0,e=t.length;r<e;r++)t[r].setAttribute("stop-color",E(n[r]))}(n[u.r],u.v),(i=u.r)?"url(#"+i+")":"none"):"none":"none"}}function ct(t,n,r){if(0===t)return n;if(1===t)return r;if(n&&r){var e=n.t;if(e===r.t)switch(n.t){case"c":return{t:e,v:b(t,n.v,r.v)};case"g":if(n.r===r.r)return{t:e,v:w(t,n.v,r.v),r:n.r}}}return h(t,n,r)}var vt={blur:m,brightness:d,contrast:d,"drop-shadow":function(t,n,r){return 0===t?n:1===t?r:{blur:m(t,n.blur,r.blur),offset:g(t,n.offset,r.offset),color:b(t,n.color,r.color)}},grayscale:d,"hue-rotate":y,invert:d,opacity:d,saturate:d,sepia:d};function ht(t,n,r){if(0===t)return n;if(1===t)return r;var e=n.length;if(e!==r.length)return h(t,n,r);for(var i,u=[],o=0;o<e;o++){if(n[o].type!==r[o].type)return n;if(!(i=vt[n[o].type]))return h(t,n,r);u.push({type:n.type,value:i(t,n[o].value,r[o].value)})}return u}var yt={blur:function(t){return t?function(n){t.setAttribute("stdDeviation",I(n))}:null},brightness:function(t,n,r){return(t=gt(r,n))?function(n){n=_(n),t.map((function(t){return t.setAttribute("slope",n)}))}:null},contrast:function(t,n,r){return(t=gt(r,n))?function(n){var r=_((1-n)/2);n=_(n),t.map((function(t){t.setAttribute("slope",n),t.setAttribute("intercept",r)}))}:null},"drop-shadow":function(t,n,r){var e=r.getElementById(n+"-blur");if(!e)return null;var i=r.getElementById(n+"-offset");if(!i)return null;var u=r.getElementById(n+"-flood");return u?function(t){e.setAttribute("stdDeviation",I(t.blur)),i.setAttribute("dx",_(t.offset.x)),i.setAttribute("dy",_(t.offset.y)),u.setAttribute("flood-color",E(t.color))}:null},grayscale:function(t){return t?function(n){t.setAttribute("values",M(function(t){return[.2126+.7874*(t=1-t),.7152-.7152*t,.0722-.0722*t,0,0,.2126-.2126*t,.7152+.2848*t,.0722-.0722*t,0,0,.2126-.2126*t,.7152-.7152*t,.0722+.9278*t,0,0,0,0,0,1,0]}(n)))}:null},"hue-rotate":function(t){return t?function(n){return t.setAttribute("values",_(n))}:null},invert:function(t,n,r){return(t=gt(r,n))?function(n){n=_(n)+" "+_(1-n),t.map((function(t){return t.setAttribute("tableValues",n)}))}:null},opacity:function(t,n,r){return(t=r.getElementById(n+"-A"))?function(n){return t.setAttribute("tableValues","0 "+_(n))}:null},saturate:function(t){return t?function(n){return t.setAttribute("values",_(n))}:null},sepia:function(t){return t?function(n){return t.setAttribute("values",M(function(t){return[.393+.607*(t=1-t),.769-.769*t,.189-.189*t,0,0,.349-.349*t,.686+.314*t,.168-.168*t,0,0,.272-.272*t,.534-.534*t,.131+.869*t,0,0,0,0,0,1,0]}(n)))}:null}};var dt=["R","G","B"];function gt(t,n){var r=dt.map((function(r){return t.getElementById(n+"-"+r)||null}));return-1!==r.indexOf(null)?null:r}var mt={fill:st,"fill-opacity":lt,stroke:st,"stroke-opacity":lt,"stroke-width":at,"stroke-dashoffset":{f:_,i:y},"stroke-dasharray":ft,opacity:lt,transform:function(n,r,e,i){if(!(n=function(n,r){if(!n||"object"!==t(n))return null;var e=!1;for(var i in n)n.hasOwnProperty(i)&&(n[i]&&n[i].length?(n[i].forEach((function(t){t.e&&(t.e=r(t.e))})),e=!0):delete n[i]);return e?n:null}(n,i)))return null;var u=function(t,i,u){var o=arguments.length>3&&void 0!==arguments[3]?arguments[3]:null;return n[t]?e(i,n[t],u):r&&r[t]?r[t]:o};return r&&r.a&&n.o?function(t){var r=e(t,n.o,nt);return it.recomposeSelf(r,u("r",t,y,0)+r.a,u("k",t,g),u("s",t,g),u("t",t,g)).toString()}:function(t){return it.recomposeSelf(u("o",t,tt,null),u("r",t,y,0),u("k",t,g),u("s",t,g),u("t",t,g)).toString()}},"#filter":function(t,n,r,e,i,u,o,a){if(!n.items||!t||!t.length)return null;var l=function(t,n){var r=(t=t.map((function(t){return t&&yt[t[0]]?(n.getElementById(t[1]),yt[t[0]](n.getElementById(t[1]),t[1],n)):null}))).length;return function(n){for(var e=0;e<r;e++)t[e]&&t[e](n[e].value)}}(n.items,a);return l?(t=function(t,n){return t.map((function(t){return t.e=n(t.e),t}))}(t,e),function(n){l(r(n,t,ht))}):null},"#line":ot,points:{f:M,i:A},d:ut,r:at,"#size":B,"#radius":F,_:function(t,n){if(Array.isArray(t))for(var r=0;r<t.length;r++)this[t[r]]=n;else this[t]=n}},pt=function(){function t(r){n(this,t),this.list=r,this.length=r.length}return e(t,[{key:"setAttribute",value:function(t,n){for(var r=this.list,e=0;e<this.length;e++)r[e].setAttribute(t,n)}},{key:"removeAttribute",value:function(t){for(var n=this.list,r=0;r<this.length;r++)n[r].removeAttribute(t)}},{key:"style",value:function(t,n){for(var r=this.list,e=0;e<this.length;e++)r[e].style[t]=n}}]),t}(),bt=/-./g,wt=function(t,n){return n.toUpperCase()};function At(t){return"function"==typeof t?t:h}function xt(t){return t?"function"==typeof t?t:Array.isArray(t)?function(t){var n=arguments.length>1&&void 0!==arguments[1]?arguments[1]:u;if(!Array.isArray(t))return n;switch(t.length){case 1:return s(t[0])||n;case 2:return s(t[0],t[1])||n;case 4:return a(t[0],t[1],t[2],t[3])||n}return n}(t,null):function(t,n){var r=arguments.length>2&&void 0!==arguments[2]?arguments[2]:u;switch(t){case"linear":return u;case"steps":return s(n.steps||1,n.jump||0)||r;case"bezier":case"cubic-bezier":return a(n.x1||0,n.y1||0,n.x2||0,n.y2||0)||r}return r}(t.type,t.value,null):null}function kt(t,n,r){var e=arguments.length>3&&void 0!==arguments[3]&&arguments[3],i=n.length-1;if(t<=n[0].t)return e?[0,0,n[0].v]:n[0].v;if(t>=n[i].t)return e?[i,1,n[i].v]:n[i].v;var u,o=n[0],a=null;for(u=1;u<=i;u++){if(!(t>n[u].t)){a=n[u];break}o=n[u]}return null==a?e?[i,1,n[i].v]:n[i].v:o.t===a.t?e?[u,1,a.v]:a.v:(t=(t-o.t)/(a.t-o.t),o.e&&(t=o.e(t)),e?[u,t,r(t,o.v,a.v)]:r(t,o.v,a.v))}function St(t,n){var r=arguments.length>2&&void 0!==arguments[2]?arguments[2]:null;return t&&t.length?"function"!=typeof n?null:("function"!=typeof r&&(r=null),function(e){var i=kt(e,t,n);return null!=i&&r&&(i=r(i)),i}):null}function _t(t,n){return t.t-n.t}function Mt(n,r,e,i,u){var o,a="@"===e[0],l="#"===e[0],f=mt[e],s=h;switch(a?(o=e.substr(1),e=o.replace(bt,wt)):l&&(e=e.substr(1)),t(f)){case"function":if(s=f(i,u,kt,xt,e,a,r,n),l)return s;break;case"string":s=St(i,At(f));break;case"object":if((s=St(i,At(f.i),f.f))&&"function"==typeof f.u)return f.u(r,s,e,a,n)}return s?function(t,n,r){var e=arguments.length>3&&void 0!==arguments[3]&&arguments[3];if(e)return t instanceof pt?function(e){return t.style(n,r(e))}:function(e){return t.style[n]=r(e)};if(Array.isArray(n)){var i=n.length;return function(e){var u=r(e);if(null==u)for(var o=0;o<i;o++)t[o].removeAttribute(n);else for(var a=0;a<i;a++)t[a].setAttribute(n,u)}}return function(e){var i=r(e);null==i?t.removeAttribute(n):t.setAttribute(n,i)}}(r,e,s,a):null}function It(n,r,e,i){if(!i||"object"!==t(i))return null;var u=null,o=null;return Array.isArray(i)?o=function(t){if(!t||!t.length)return null;for(var n=0;n<t.length;n++)t[n].e&&(t[n].e=xt(t[n].e));return t.sort(_t)}(i):(o=i.keys,u=i.data||null),o?Mt(n,r,e,o,u):null}function Et(t,n,r){if(!r)return null;var e=[];for(var i in r)if(r.hasOwnProperty(i)){var u=It(t,n,i,r[i]);u&&e.push(u)}return e.length?e:null}function Ft(t,n){if(!n.duration||n.duration<0)return null;var r=function(t,n){if(!n)return null;var r=[];if(Array.isArray(n))for(var e=n.length,i=0;i<e;i++){var u=n[i];if(2===u.length){var o=null;if("string"==typeof u[0])o=t.getElementById(u[0]);else if(Array.isArray(u[0])){o=[];for(var a=0;a<u[0].length;a++)if("string"==typeof u[0][a]){var l=t.getElementById(u[0][a]);l&&o.push(l)}o=o.length?1===o.length?o[0]:new pt(o):null}if(o){var f=Et(t,o,u[1]);f&&(r=r.concat(f))}}}else for(var s in n)if(n.hasOwnProperty(s)){var c=t.getElementById(s);if(c){var v=Et(t,c,n[s]);v&&(r=r.concat(v))}}return r.length?r:null}(t,n.elements);return r?function(t,n){var r=arguments.length>2&&void 0!==arguments[2]?arguments[2]:1/0,e=arguments.length>3&&void 0!==arguments[3]?arguments[3]:1,i=arguments.length>4&&void 0!==arguments[4]&&arguments[4],u=arguments.length>5&&void 0!==arguments[5]?arguments[5]:1,o=t.length,a=e>0?n:0;i&&r%2==0&&(a=n-a);var l=null;return function(f,s){var c=f%n,v=1+(f-c)/n;s*=e,i&&v%2==0&&(s=-s);var h=!1;if(v>r)c=a,h=!0,-1===u&&(c=e>0?0:n);else if(s<0&&(c=n-c),c===l)return!1;l=c;for(var y=0;y<o;y++)t[y](c);return h}}(r,n.duration,n.iterations||1/0,n.direction||1,!!n.alternate,n.fill||1):null}var Bt=function(){function t(r){var e=arguments.length>1&&void 0!==arguments[1]?arguments[1]:{};n(this,t),this._id=0,this._running=!1,this._animations=r,this.direction=e.direction||1,this.speed=e.speed||1,this.fps=e.fps||100,this.offset=e.offset||0}return e(t,[{key:"_start",value:function(){var t=this,n=arguments.length>0&&void 0!==arguments[0]?arguments[0]:0,r=-1/0,e=null,i={},u=function u(o){t._running=!0,null==e&&(e=o);var a=Math.round((o-e+n)*t.speed),l=t.fps?1e3/t.fps:0;if(a>r+l){t.offset=a,r=a;for(var f=t._animations,s=f.length,c=0,v=0;v<s;v++)i[v]?c++:(i[v]=f[v](a,t.direction),i[v]&&c++);if(c===s)return void t._stop()}t._id=window.requestAnimationFrame(u)};this._id=window.requestAnimationFrame(u)}},{key:"_stop",value:function(){this._id&&window.cancelAnimationFrame(this._id),this._running=!1}},{key:"play",value:function(){this._running||this._start(this.offset)}},{key:"stop",value:function(){this._stop(),this.offset=0;var t=this.direction,n=this._animations;requestAnimationFrame((function(){for(var r=0;r<n.length;r++)n[r](0,t)}))}},{key:"restart",value:function(){this._stop(),this.offset=0,this._start()}},{key:"pause",value:function(){this._stop()}},{key:"reverse",value:function(){this.direction=-this.direction}}],[{key:"build",value:function(n){if(!(n=function(t){if(!t||!t.root||!Array.isArray(t.animations))return null;var n=window.document.getElementById(t.root);if(!n)return null;var r=t.animations.map((function(t){return Ft(n,t)})).filter((function(t){return!!t}));return r.length?{element:n,animations:r,options:t.options||void 0}:null}(n)))return null;var r=n.element,e=n.options||{},i=new t(n.animations,n.options);return function(t,n,r){var e=arguments.length>3&&void 0!==arguments[3]?arguments[3]:null;if("click"===r){var i=function r(){n.removeEventListener("click",r),t.play()};return void n.addEventListener("click",i)}if("hover"===r)return n.addEventListener("mouseenter",(function(){return t.play()})),void n.addEventListener("mouseleave","freeze"===e?function(){return t.pause()}:function(){return t.stop()});t.play()}(i,r,e.start,e.hover),i}}]),t}();return function(){for(var t=0,n=["ms","moz","webkit","o"],r=0;r<n.length&&!window.requestAnimationFrame;++r)window.requestAnimationFrame=window[n[r]+"RequestAnimationFrame"],window.cancelAnimationFrame=window[n[r]+"CancelAnimationFrame"]||window[n[r]+"CancelRequestAnimationFrame"];window.requestAnimationFrame||(window.requestAnimationFrame=function(n){var r=Date.now(),e=Math.max(0,16-(r-t)),i=window.setTimeout((function(){n(r+e)}),e);return t=r+e,i},window.cancelAnimationFrame=window.clearTimeout)}(),Bt}));
__SVGATOR_PLAYER__.build({"root":"e6ixl8d1zbbx1","animations":[{"duration":2000,"direction":1,"iterations":0,"fill":1,"alternate":false,"elements":{"e6ixl8d1zbbx2":{"transform":{"data":{"o":{"x":1192.478413,"y":743.445389,"type":"corner"},"t":{"x":-1253.2409269999998,"y":-629.0147239999999}},"keys":{"r":[{"t":0,"v":1.8835963033265568,"e":[0.42,0,0.58,1]},{"t":180,"v":21.688686080051045,"e":[0.42,0,0.58,1]},{"t":270,"v":38.38125675328493,"e":[0.42,0,0.58,1]},{"t":350,"v":21.688686080051045,"e":[0.42,0,0.58,1]},{"t":480,"v":9.580441653965401,"e":[0.42,0,0.58,1]},{"t":540,"v":7.505361998141687,"e":[0.42,0,0.58,1]},{"t":620,"v":18.771154645380534,"e":[0.42,0,0.58,1]},{"t":710,"v":27.38115972723508,"e":[0.42,0,0.58,1]},{"t":820,"v":18.771154645380534,"e":[0.42,0,0.58,1]},{"t":910,"v":4.889406000417256,"e":[0.42,0,0.58,1]},{"t":1000,"v":18.771154645380534,"e":[0.42,0,0.58,1]},{"t":1100,"v":25.075423015142658,"e":[0.42,0,0.58,1]},{"t":1220,"v":18.771154645380534,"e":[0.42,0,0.58,1]},{"t":1350,"v":4.143390647742914,"e":[0.42,0,0.58,1]}]}}},"e6ixl8d1zbbx5":{"transform":{"keys":{"o":[{"t":0,"v":{"x":-77.93989099999993,"y":-78.2477550000001,"type":"corner"},"e":[0.445,0.05,0.55,0.95]},{"t":480,"v":{"x":-77.93989099999993,"y":-78.2477550000001,"type":"corner"},"e":[0.445,0.05,0.55,0.95]},{"t":540,"v":{"x":-77.93989099999993,"y":-53.2477550000001,"type":"corner"},"e":[0.445,0.05,0.55,0.95]},{"t":890,"v":{"x":-77.93989099999993,"y":-53.2477550000001,"type":"corner"},"e":[0.445,0.05,0.55,0.95]},{"t":910,"v":{"x":-77.93989099999993,"y":-11.247755000000097,"type":"corner"},"e":[0.445,0.05,0.55,0.95]},{"t":1350,"v":{"x":-77.93989099999993,"y":-11.247755000000097,"type":"corner"},"e":[0.445,0.05,0.55,0.95]},{"t":1380,"v":{"x":-77.93989099999993,"y":22.752244999999903,"type":"corner"},"e":[0.445,0.05,0.55,0.95]}]}},"opacity":[{"t":0,"v":0},{"t":30,"v":0},{"t":150,"v":1,"e":[0.77,0,0.175,1]}]},"e6ixl8d1zbbx11":{"transform":{"data":{"s":{"x":0.9470459443562737,"y":1}},"keys":{"o":[{"t":0,"v":{"x":-61,"y":-103,"type":"corner"}},{"t":460,"v":{"x":-61,"y":-103,"type":"corner"}},{"t":800,"v":{"x":-61,"y":-103,"type":"corner"}},{"t":860,"v":{"x":-78,"y":-68,"type":"corner"}},{"t":1230,"v":{"x":-78,"y":-68,"type":"corner"}},{"t":1300,"v":{"x":-46,"y":-23,"type":"corner"}}]}},"opacity":[{"t":0,"v":0},{"t":460,"v":0},{"t":500,"v":1},{"t":570,"v":0},{"t":860,"v":0},{"t":910,"v":1},{"t":970,"v":0},{"t":1300,"v":0},{"t":1350,"v":1}]},"e6ixl8d1zbbx12":{"transform":{"data":{"s":{"x":0.9127549464840018,"y":1}},"keys":{"o":[{"t":0,"v":{"x":16,"y":-89,"type":"corner"}},{"t":460,"v":{"x":16,"y":-89,"type":"corner"}},{"t":800,"v":{"x":16,"y":-89,"type":"corner"}},{"t":860,"v":{"x":3,"y":-35,"type":"corner"}},{"t":1230,"v":{"x":3,"y":-35,"type":"corner"}},{"t":1300,"v":{"x":17,"y":21,"type":"corner"}}]}},"opacity":[{"t":0,"v":0},{"t":460,"v":0},{"t":500,"v":1},{"t":570,"v":0},{"t":860,"v":0},{"t":910,"v":1},{"t":970,"v":0},{"t":1300,"v":0},{"t":1350,"v":1}]},"e6ixl8d1zbbx13":{"transform":{"data":{"s":{"x":1.0169663782320544,"y":1}},"keys":{"o":[{"t":0,"v":{"x":0,"y":-238,"type":"corner"}},{"t":460,"v":{"x":0,"y":-238,"type":"corner"}},{"t":800,"v":{"x":0,"y":-238,"type":"corner"}},{"t":860,"v":{"x":21,"y":-96,"type":"corner"}},{"t":1230,"v":{"x":21,"y":-96,"type":"corner"}},{"t":1300,"v":{"x":-16,"y":-82,"type":"corner"}}]}},"opacity":[{"t":0,"v":0},{"t":460,"v":0},{"t":500,"v":1},{"t":570,"v":0},{"t":860,"v":0},{"t":910,"v":1},{"t":970,"v":0},{"t":1300,"v":0},{"t":1350,"v":1}]},"e6ixl8d1zbbx14":{"transform":{"data":{"s":{"x":0.9508046937411633,"y":1}},"keys":{"o":[{"t":0,"v":{"x":-13,"y":-85,"type":"corner"}},{"t":460,"v":{"x":-13,"y":-85,"type":"corner"}},{"t":800,"v":{"x":-13,"y":-85,"type":"corner"}},{"t":860,"v":{"x":-29,"y":-20,"type":"corner"}},{"t":1230,"v":{"x":-29,"y":-20,"type":"corner"}},{"t":1300,"v":{"x":-41,"y":37,"type":"corner"}}]}},"opacity":[{"t":0,"v":0},{"t":460,"v":0},{"t":500,"v":1},{"t":570,"v":0},{"t":860,"v":0},{"t":910,"v":1},{"t":970,"v":0},{"t":1300,"v":0},{"t":1350,"v":1}]},"e6ixl8d1zbbx15":{"transform":{"keys":{"o":[{"t":0,"v":{"x":-72.84329600000001,"y":-142.858967,"type":"corner"}},{"t":740,"v":{"x":-72.84329600000001,"y":-142.858967,"type":"corner"}},{"t":860,"v":{"x":-72.84329600000001,"y":-64.858967,"type":"corner"}},{"t":1220,"v":{"x":-72.84329600000001,"y":-64.858967,"type":"corner"}},{"t":1300,"v":{"x":-72.84329600000001,"y":-18.858967000000007,"type":"corner"}}]}},"opacity":[{"t":0,"v":0},{"t":460,"v":0},{"t":500,"v":1},{"t":570,"v":0},{"t":860,"v":0},{"t":910,"v":1},{"t":970,"v":0},{"t":1300,"v":0},{"t":1350,"v":1}]},"e6ixl8d1zbbx16":{"transform":{"keys":{"o":[{"t":0,"v":{"x":-38.183401,"y":-94.214742,"type":"corner"}},{"t":740,"v":{"x":-38.183401,"y":-94.214742,"type":"corner"}},{"t":860,"v":{"x":-38.183401,"y":-44.214742,"type":"corner"}},{"t":1220,"v":{"x":-38.183401,"y":-44.214742,"type":"corner"}},{"t":1300,"v":{"x":-38.183401,"y":-1.214742000000001,"type":"corner"}}]}},"opacity":[{"t":0,"v":0},{"t":460,"v":0},{"t":500,"v":1},{"t":570,"v":0},{"t":860,"v":0},{"t":910,"v":1},{"t":970,"v":0},{"t":1300,"v":0},{"t":1350,"v":1}]},"e6ixl8d1zbbx17":{"transform":{"keys":{"o":[{"t":0,"v":{"x":-76.366802,"y":-105.659895,"type":"corner"}},{"t":740,"v":{"x":-76.366802,"y":-31.659895000000006,"type":"corner"}},{"t":860,"v":{"x":-76.366802,"y":-43.659895000000006,"type":"corner"}}]}},"opacity":[{"t":0,"v":0},{"t":460,"v":0},{"t":500,"v":1},{"t":570,"v":0},{"t":860,"v":0},{"t":910,"v":1},{"t":970,"v":0},{"t":1300,"v":0},{"t":1350,"v":1}]},"e6ixl8d1zbbx18":{"transform":{"keys":{"o":[{"t":0,"v":{"x":-108.35113100000001,"y":-83.460825,"type":"corner"}},{"t":740,"v":{"x":-108.35113100000001,"y":-83.460825,"type":"corner"}},{"t":860,"v":{"x":-108.35113100000001,"y":-32.460825,"type":"corner"}}]}},"opacity":[{"t":0,"v":0},{"t":460,"v":0},{"t":500,"v":1},{"t":570,"v":0},{"t":860,"v":0},{"t":910,"v":1},{"t":970,"v":0},{"t":1300,"v":0},{"t":1350,"v":1}]}}}],"options":{"start":"load","hover":"freeze"}})]]></script></svg>